<?xml version="1.0" encoding="utf-8"?>
<!-- Generator: Adobe Illustrator 24.3.0, SVG Export Plug-In . SVG Version: 6.00 Build 0)  -->
<svg version="1.1" id="Layer_1" xmlns="http://www.w3.org/2000/svg" xmlns:xlink="http://www.w3.org/1999/xlink" x="0px" y="0px"
	 viewBox="0 0 150 100" style="enable-background:new 0 0 150 100;" xml:space="preserve">
<style type="text/css">
	.st0{fill-rule:evenodd;clip-rule:evenodd;fill:#D3EEFB;}
	.st1{fill-rule:evenodd;clip-rule:evenodd;fill:#10357E;}
	.st2{fill-rule:evenodd;clip-rule:evenodd;fill:#FFFFFF;}
	.st3{fill-rule:evenodd;clip-rule:evenodd;fill:#007DC4;}
</style>
<g>
	<path id="XMLID_105_" class="st0" d="M147.5,76.3l-65.7,0c-28.6,1-47.1,4.8-79.3,3.6V47.6h61.9c22.7-0.4,53.8-6.7,83.1-5.2V76.3
		L147.5,76.3z"/>
	<path id="XMLID_104_" class="st1" d="M147.5,41.5c-38.1-1.6-61.4,6-93.3,5.1H2.5V2.3h145V41.5L147.5,41.5z"/>
	<path id="XMLID_103_" class="st1" d="M2.5,80.9c37.5,1.5,61.4-4.4,93.2-3.6h51.8v20.4H2.5V80.9L2.5,80.9z"/>
	<path class="st2" d="M29,23.3L41.7,6.4h5.9L34.5,23l12.7,16.9h-6.1L29,23.3L29,23.3z M28.8,39.9H24V6.4h4.9V39.9L28.8,39.9z
		 M69.2,39.9H51.8V6.4h17.4v4.5H56.7v10h12.6v4.4H56.7v10.1h12.6V39.9L69.2,39.9z M82.1,39.9h-4.9V6.4h5l16.5,25.4L98.5,6.4h4.8
		v33.6h-4.7L81.8,13.8L82.1,39.9L82.1,39.9z M119.8,39.9h-4.9V10.9h-6.3V6.4H126v4.5h-6.3V39.9L119.8,39.9z"/>
	<path class="st2" d="M14.1,83.7h1.7l1.4,6.3c0,0.2,0.1,0.4,0.1,0.6c0,0.2,0,0.3,0.1,0.5c0.1-0.2,0.2-0.4,0.3-0.6
		c0.1-0.2,0.1-0.3,0.2-0.4l3.4-6.8l1.8,6.9c0,0.1,0,0.2,0.1,0.3c0,0.1,0,0.3,0.1,0.6c0.1-0.2,0.1-0.4,0.2-0.6
		c0.1-0.2,0.1-0.3,0.2-0.4l2.7-6.3h1.9l-5.3,11.1L21,87.8c0,0,0-0.2-0.1-0.4c0-0.2-0.1-0.4-0.1-0.6c-0.1,0.2-0.2,0.5-0.2,0.6
		c-0.1,0.2-0.1,0.3-0.2,0.4l-3.6,6.9L14.1,83.7L14.1,83.7z M30.5,91.1c0,0.7,0.2,1.2,0.5,1.5c0.3,0.4,0.7,0.6,1.3,0.6
		c0.6,0,1.1-0.3,1.5-0.8c0.4-0.5,0.5-1.2,0.5-2.1c0-0.6-0.2-1.1-0.5-1.4c-0.3-0.4-0.8-0.5-1.3-0.5c-0.6,0-1.1,0.2-1.4,0.7
		C30.7,89.6,30.5,90.3,30.5,91.1L30.5,91.1z M35.3,94.3h-1.6l0.1-0.8c-0.3,0.3-0.6,0.6-0.9,0.8c-0.4,0.2-0.8,0.3-1.2,0.3
		c-0.9,0-1.6-0.3-2.1-0.9c-0.5-0.6-0.7-1.4-0.7-2.4c0-1.2,0.3-2.2,0.9-3c0.6-0.8,1.4-1.1,2.4-1.1c0.5,0,0.9,0.1,1.3,0.3
		c0.4,0.2,0.8,0.5,1.1,0.9l0.1-0.9h1.6L35.3,94.3L35.3,94.3z M39.1,94.3l0.7-5.6h-1.2l0.2-1.3H40l0.3-2.6h1.6l-0.3,2.6h1.3l-0.2,1.3
		h-1.3l-0.7,5.6H39.1L39.1,94.3z M46.5,90.1h3.6c0-0.5-0.1-0.8-0.4-1.1c-0.3-0.3-0.6-0.4-1.1-0.4c-0.5,0-1,0.1-1.3,0.4
		C46.9,89.2,46.6,89.6,46.5,90.1L46.5,90.1z M50,92.2l1.1,0.9c-0.4,0.5-0.8,0.9-1.3,1.2c-0.5,0.2-1,0.4-1.6,0.4
		c-1,0-1.9-0.3-2.5-0.9c-0.6-0.6-0.9-1.4-0.9-2.4c0-1.2,0.4-2.2,1.1-2.9c0.7-0.8,1.7-1.1,2.8-1.1c0.9,0,1.7,0.3,2.2,0.9
		c0.5,0.6,0.8,1.4,0.8,2.3c0,0.1,0,0.2,0,0.3c0,0.1,0,0.3,0,0.5h-5.3c0,0.6,0.2,1.1,0.5,1.5c0.3,0.4,0.7,0.6,1.3,0.6
		c0.4,0,0.7-0.1,1-0.3C49.5,92.8,49.8,92.5,50,92.2L50,92.2z M59.1,88.8c-0.1-0.1-0.2-0.1-0.4-0.2c-0.1,0-0.3-0.1-0.4-0.1
		c-0.6,0-1,0.2-1.3,0.6c-0.3,0.4-0.5,1-0.6,1.9L56,94.3h-1.6l0.9-6.9h1.5l-0.1,0.9c0.3-0.4,0.6-0.7,0.9-0.9c0.3-0.2,0.7-0.3,1-0.3
		c0.2,0,0.3,0,0.5,0.1c0.2,0,0.3,0.1,0.5,0.2L59.1,88.8L59.1,88.8z M73.3,88.3h0.6c1,0,1.8-0.1,2.1-0.4c0.4-0.3,0.6-0.7,0.6-1.3
		c0-0.5-0.2-0.9-0.5-1.1c-0.3-0.2-0.9-0.3-1.9-0.3h-0.5L73.3,88.3L73.3,88.3z M72.5,94.3h-1.7l1.4-10.7h2.2c0.9,0,1.5,0.1,1.8,0.2
		c0.4,0.1,0.7,0.3,1,0.5c0.3,0.2,0.6,0.6,0.7,0.9c0.2,0.4,0.3,0.8,0.3,1.3c0,0.5-0.1,1-0.3,1.5c-0.2,0.4-0.5,0.8-0.8,1.1
		c-0.3,0.2-0.7,0.4-1.1,0.5c-0.4,0.1-1.1,0.2-2,0.2h-0.5h-0.4L72.5,94.3L72.5,94.3z M81,87.4h1.6l-0.4,2.9c0,0.1,0,0.1,0,0.3
		c-0.1,0.6-0.1,1-0.1,1.2c0,0.4,0.1,0.8,0.4,1c0.2,0.2,0.6,0.4,1.1,0.4c0.6,0,1.1-0.2,1.4-0.5c0.3-0.3,0.5-1,0.6-2l0.4-3.2h1.6
		l-0.5,3.5c-0.1,0.9-0.3,1.5-0.4,1.9c-0.1,0.4-0.4,0.7-0.6,0.9c-0.3,0.3-0.7,0.5-1.1,0.6c-0.4,0.1-0.9,0.2-1.5,0.2
		c-1,0-1.7-0.2-2.2-0.7c-0.5-0.4-0.7-1.1-0.7-2c0-0.2,0-0.7,0.1-1.4l0,0L81,87.4L81,87.4z M95,88.8c-0.1-0.1-0.2-0.1-0.3-0.2
		c-0.1,0-0.3-0.1-0.4-0.1c-0.6,0-1,0.2-1.3,0.6c-0.3,0.4-0.5,1-0.6,1.9l-0.4,3.2h-1.6l0.9-6.9h1.5l-0.1,0.9c0.3-0.4,0.6-0.7,0.9-0.9
		c0.3-0.2,0.7-0.3,1-0.3c0.2,0,0.3,0,0.5,0.1c0.2,0,0.3,0.1,0.5,0.2L95,88.8L95,88.8z M98.2,85c0-0.3,0.1-0.5,0.3-0.7
		c0.2-0.2,0.4-0.3,0.7-0.3c0.3,0,0.5,0.1,0.7,0.3c0.2,0.2,0.3,0.4,0.3,0.7c0,0.3-0.1,0.5-0.3,0.7c-0.2,0.2-0.4,0.3-0.7,0.3
		c-0.3,0-0.5-0.1-0.7-0.3C98.3,85.5,98.2,85.3,98.2,85L98.2,85z M97.2,94.3l0.9-6.9h1.6l-0.9,6.9H97.2L97.2,94.3z M102.8,94.3
		l0.7-5.6h-1.2l0.2-1.3h1.2l0.2-1.7c0.1-1.1,0.4-1.8,0.7-2.2c0.3-0.4,0.9-0.6,1.6-0.6c0.2,0,0.5,0,0.6,0.1c0.2,0,0.4,0.1,0.6,0.2
		l-0.2,1.4c-0.2-0.1-0.3-0.1-0.5-0.2c-0.1,0-0.2,0-0.4,0c-0.3,0-0.5,0.1-0.7,0.3c-0.1,0.2-0.3,0.7-0.3,1.3l-0.2,1.5h1.4l-0.2,1.3
		h-1.4l-0.7,5.6H102.8L102.8,94.3z M109.8,85c0-0.3,0.1-0.5,0.3-0.7c0.2-0.2,0.4-0.3,0.7-0.3c0.3,0,0.5,0.1,0.7,0.3
		c0.2,0.2,0.3,0.4,0.3,0.7c0,0.3-0.1,0.5-0.3,0.7c-0.2,0.2-0.4,0.3-0.7,0.3c-0.3,0-0.5-0.1-0.7-0.3C109.9,85.5,109.8,85.3,109.8,85
		L109.8,85z M108.8,94.3l0.9-6.9h1.6l-0.9,6.9H108.8L108.8,94.3z M115.8,90.1h3.6c0-0.5-0.2-0.8-0.4-1.1c-0.3-0.3-0.6-0.4-1.1-0.4
		c-0.5,0-1,0.1-1.3,0.4C116.1,89.2,115.9,89.6,115.8,90.1L115.8,90.1z M119.3,92.2l1.1,0.9c-0.4,0.5-0.8,0.9-1.3,1.2
		c-0.5,0.2-1,0.4-1.6,0.4c-1,0-1.9-0.3-2.5-0.9c-0.6-0.6-0.9-1.4-0.9-2.4c0-1.2,0.4-2.2,1.1-2.9c0.7-0.8,1.7-1.1,2.8-1.1
		c0.9,0,1.7,0.3,2.2,0.9c0.6,0.6,0.8,1.4,0.8,2.3c0,0.1,0,0.2,0,0.3c0,0.1,0,0.3,0,0.5h-5.3c0,0.6,0.2,1.1,0.5,1.5
		c0.3,0.4,0.7,0.6,1.3,0.6c0.4,0,0.7-0.1,1-0.3C118.7,92.8,119,92.5,119.3,92.2L119.3,92.2z M128.4,88.8c-0.1-0.1-0.2-0.1-0.4-0.2
		c-0.1,0-0.3-0.1-0.4-0.1c-0.6,0-1,0.2-1.3,0.6c-0.3,0.4-0.5,1-0.7,1.9l-0.4,3.2h-1.6l0.9-6.9h1.5l-0.1,0.9c0.3-0.4,0.6-0.7,0.9-0.9
		c0.3-0.2,0.7-0.3,1-0.3c0.2,0,0.3,0,0.5,0.1c0.2,0,0.3,0.1,0.5,0.2L128.4,88.8L128.4,88.8z M130.9,92.3c0.3,0.4,0.5,0.6,0.8,0.8
		c0.3,0.2,0.6,0.3,1,0.3c0.3,0,0.6-0.1,0.8-0.2c0.2-0.2,0.3-0.3,0.3-0.6c0-0.4-0.4-0.7-1.1-1.1c0,0,0,0,0,0c-0.7-0.4-1.2-0.7-1.4-1
		c-0.2-0.3-0.3-0.6-0.3-1c0-0.6,0.2-1.2,0.7-1.6c0.5-0.4,1.1-0.6,1.9-0.6c0.5,0,0.9,0.1,1.3,0.3c0.4,0.2,0.8,0.4,1.1,0.8l-1,1
		c-0.2-0.3-0.5-0.5-0.7-0.6c-0.3-0.1-0.6-0.2-0.9-0.2c-0.2,0-0.4,0.1-0.6,0.2c-0.2,0.1-0.3,0.3-0.3,0.5c0,0.3,0.3,0.6,0.9,1
		c0.2,0.1,0.4,0.2,0.5,0.3c0.5,0.3,0.9,0.6,1.1,0.9c0.2,0.3,0.3,0.7,0.3,1.1c0,0.7-0.2,1.2-0.7,1.6c-0.5,0.4-1.1,0.6-1.9,0.6
		c-0.5,0-1-0.1-1.5-0.3c-0.5-0.2-0.9-0.5-1.2-0.9L130.9,92.3L130.9,92.3z"/>
	<g>
		<path class="st3" d="M130.4,55.2v-3.4h-1.2v-0.7h3.2v0.7h-1.2v3.4H130.4L130.4,55.2z M132.9,55.2v-4h1.2l0.7,2.8l0.7-2.8h1.2v4
			H136V52l-0.8,3.2h-0.8l-0.8-3.2v3.2H132.9L132.9,55.2z"/>
		<path class="st3" d="M22.9,69.9h-3.1l-0.6-13.2l-2.5,13.2h-2.9L17.1,54h4.6l0.5,11.1L27.6,54h4.7L29,69.9h-3l3.1-13.1L22.9,69.9
			L22.9,69.9z M35.5,54h3.1L38,56.8h-3.1L35.5,54L35.5,54z M34.5,58.4h3.1l-2.4,11.5h-3.1L34.5,58.4L34.5,58.4z M40.7,58.4h2.9
			l-0.3,1.5c0.7-0.6,1.4-1.1,2.1-1.4c0.6-0.3,1.3-0.4,2-0.4c0.9,0,1.7,0.3,2.2,0.8c0.5,0.5,0.8,1.3,0.8,2.2c0,0.4-0.1,1.2-0.4,2.3
			l-1.3,6.5h-3.1l1.4-6.5c0.2-1,0.3-1.6,0.3-1.7c0-0.4-0.1-0.7-0.4-0.9c-0.2-0.2-0.6-0.3-1-0.3c-0.5,0-1,0.2-1.5,0.6
			c-0.6,0.4-1,0.9-1.3,1.5c-0.2,0.5-0.5,1.4-0.8,2.7l-1,4.7h-3.1L40.7,58.4L40.7,58.4z M62.9,65.1h-7.8c0,0.1,0,0.2,0,0.3
			c0,0.8,0.2,1.4,0.7,1.8c0.4,0.5,1,0.7,1.6,0.7c1,0,1.8-0.5,2.4-1.6l2.8,0.5c-0.5,1.1-1.3,2-2.2,2.5c-0.9,0.6-1.9,0.8-3,0.8
			c-1.5,0-2.8-0.5-3.8-1.5c-1-1-1.4-2.3-1.4-3.9c0-1.6,0.4-3,1.3-4.2c1.2-1.7,2.9-2.5,5.1-2.5c1.4,0,2.5,0.4,3.3,1.3
			c0.8,0.9,1.2,2.1,1.2,3.6C63.2,63.8,63.1,64.5,62.9,65.1L62.9,65.1z M60.3,63.2c0-0.1,0-0.2,0-0.3c0-0.8-0.2-1.5-0.6-1.9
			c-0.4-0.4-0.9-0.6-1.5-0.6c-0.6,0-1.2,0.2-1.7,0.7c-0.5,0.5-0.8,1.2-1,2.1H60.3L60.3,63.2z M66.3,58.4h2.9l-0.5,2.2
			c1.1-1.7,2.3-2.5,3.5-2.5c0.4,0,0.9,0.1,1.4,0.3L72.5,61c-0.3-0.1-0.6-0.2-0.9-0.2c-0.5,0-1.1,0.2-1.6,0.6c-0.5,0.4-1,0.9-1.3,1.6
			c-0.3,0.7-0.6,1.7-0.9,3.2L67,69.9h-3.1L66.3,58.4L66.3,58.4z M77,61.6l-3-0.3c0.3-1,1-1.8,1.8-2.4c0.9-0.6,2-0.9,3.4-0.9
			c1.5,0,2.6,0.3,3.3,0.9c0.7,0.6,1.1,1.3,1.1,2.2c0,0.3,0,0.7-0.1,1.1c-0.1,0.4-0.3,1.4-0.6,3.1c-0.3,1.4-0.5,2.3-0.5,2.9
			c0,0.5,0.1,1,0.3,1.6h-3c-0.1-0.4-0.2-0.9-0.2-1.3c-0.5,0.5-1,0.9-1.6,1.2c-0.6,0.3-1.2,0.4-1.8,0.4c-0.9,0-1.7-0.3-2.3-0.9
			c-0.6-0.6-0.9-1.4-0.9-2.4c0-1.1,0.3-2,1-2.6c0.7-0.7,1.9-1.1,3.6-1.2c1.5-0.1,2.5-0.3,3-0.4c0.1-0.4,0.2-0.8,0.2-1
			c0-0.3-0.1-0.6-0.4-0.8c-0.3-0.2-0.7-0.3-1.2-0.3c-0.6,0-1,0.1-1.3,0.3C77.4,60.9,77.2,61.2,77,61.6L77,61.6z M80,64.5
			c-0.2,0.1-0.4,0.1-0.7,0.1c-1.6,0.2-2.6,0.5-3,0.8c-0.3,0.3-0.5,0.6-0.5,1c0,0.4,0.1,0.7,0.4,0.9c0.3,0.2,0.6,0.4,1,0.4
			c0.5,0,0.9-0.1,1.3-0.3c0.4-0.2,0.7-0.5,0.9-0.9c0.2-0.4,0.4-0.9,0.5-1.7L80,64.5L80,64.5z M84.9,69.9L88.3,54h3.1L88,69.9H84.9
			L84.9,69.9z M100.6,69.9h-3.3l3.3-15.8h7c1.2,0,2.2,0.1,2.8,0.4c0.7,0.2,1.2,0.7,1.6,1.4c0.4,0.7,0.6,1.5,0.6,2.4
			c0,1.3-0.4,2.5-1.2,3.3c-0.8,0.9-2,1.4-3.7,1.6c0.4,0.4,0.8,0.9,1.2,1.5c0.7,1.2,1.5,3,2.4,5.2H108c-0.3-0.9-0.8-2.3-1.6-4.2
			c-0.4-1-0.9-1.7-1.4-2.1c-0.3-0.2-0.8-0.3-1.6-0.3H102L100.6,69.9L100.6,69.9z M102.5,60.9h1.7c1.7,0,2.9-0.1,3.5-0.3
			c0.6-0.2,1-0.5,1.3-1c0.3-0.4,0.5-0.9,0.5-1.4c0-0.6-0.2-1-0.7-1.3c-0.3-0.2-0.9-0.3-1.9-0.3h-3.6L102.5,60.9L102.5,60.9z
			 M114.3,63.6c0-0.9,0.1-1.9,0.4-2.9c0.4-1.4,0.9-2.6,1.7-3.6c0.8-1,1.7-1.8,2.8-2.4c1.1-0.6,2.4-0.9,3.9-0.9c2,0,3.5,0.6,4.7,1.8
			c1.2,1.2,1.8,2.8,1.8,4.8c0,1.7-0.4,3.3-1.2,4.8c-0.8,1.6-1.8,2.8-3.2,3.6c-1.3,0.8-2.9,1.3-4.6,1.3c-1.5,0-2.7-0.3-3.7-1
			c-1-0.7-1.7-1.5-2.1-2.5C114.5,65.7,114.3,64.7,114.3,63.6L114.3,63.6z M117.5,63.6c0,1.1,0.3,2,1,2.7c0.7,0.7,1.5,1.1,2.6,1.1
			c0.9,0,1.7-0.3,2.5-0.9c0.8-0.6,1.5-1.5,2-2.6c0.5-1.2,0.8-2.3,0.8-3.4c0-1.2-0.3-2.2-1-2.9c-0.7-0.7-1.5-1.1-2.6-1.1
			c-1.6,0-2.9,0.7-3.9,2.2C118,60.2,117.5,61.8,117.5,63.6L117.5,63.6z"/>
	</g>
</g>
</svg>
